<svg width="52" height="56" viewBox="0 0 52 56" fill="none" xmlns="http://www.w3.org/2000/svg">
<path d="M6 12C9.31371 12 12 9.31371 12 6C12 2.68629 9.31371 0 6 0C2.68629 0 0 2.68629 0 6C0 9.31371 2.68629 12 6 12Z" fill="white"/>
<path d="M6 32C9.31371 32 12 29.3137 12 26C12 22.6863 9.31371 20 6 20C2.68629 20 0 22.6863 0 26C0 29.3137 2.68629 32 6 32Z" fill="white"/>
<path d="M6 52C9.31371 52 12 49.3137 12 46C12 42.6863 9.31371 40 6 40C2.68629 40 0 42.6863 0 46C0 49.3137 2.68629 52 6 52Z" fill="white"/>
<path d="M26 12C29.3137 12 32 9.31371 32 6C32 2.68629 29.3137 0 26 0C22.6863 0 20 2.68629 20 6C20 9.31371 22.6863 12 26 12Z" fill="white"/>
<path d="M26 32C29.3137 32 32 29.3137 32 26C32 22.6863 29.3137 20 26 20C22.6863 20 20 22.6863 20 26C20 29.3137 22.6863 32 26 32Z" fill="white"/>
<path d="M26 52C29.3137 52 32 49.3137 32 46C32 42.6863 29.3137 40 26 40C22.6863 40 20 42.6863 20 46C20 49.3137 22.6863 52 26 52Z" fill="white"/>
<path d="M46 12C49.3137 12 52 9.31371 52 6C52 2.68629 49.3137 0 46 0C42.6863 0 40 2.68629 40 6C40 9.31371 42.6863 12 46 12Z" fill="white"/>
<path d="M46 32C49.3137 32 52 29.3137 52 26C52 22.6863 49.3137 20 46 20C42.6863 20 40 22.6863 40 26C40 29.3137 42.6863 32 46 32Z" fill="white"/>
<path d="M46 52C49.3137 52 52 49.3137 52 46C52 42.6863 49.3137 40 46 40C42.6863 40 40 42.6863 40 46C40 49.3137 42.6863 52 46 52Z" fill="white"/>
</svg>
